<?xml version="1.0" encoding="utf-8"?>
<!-- Generator: Adobe Illustrator 15.0.2, SVG Export Plug-In . SVG Version: 6.00 Build 0)  -->
<!DOCTYPE svg PUBLIC "-//W3C//DTD SVG 1.1//EN" "http://www.w3.org/Graphics/SVG/1.1/DTD/svg11.dtd">
<svg version="1.1" id="Calque_1" xmlns="http://www.w3.org/2000/svg" xmlns:xlink="http://www.w3.org/1999/xlink" x="0px" y="0px"
	 width="480px" height="24px" viewBox="0 0 480 24" enable-background="new 0 0 480 24" xml:space="preserve">
<g id="_x30_1">
	<g id="Normal_1_">
		<path fill="#FF0000" d="M5.264,8.703h-2.65c-1.979,0-2.285,1-0.681,2.224l2.131,1.624l2.918,2.225l-1.119,3.611l-0.806,2.602
			c-0.615,1.984,0.195,2.609,1.8,1.387l2.13-1.623l2.918-2.225l2.918,2.225l2.13,1.623c1.604,1.225,2.414,0.6,1.799-1.387
			l-0.806-2.602l-1.118-3.611l2.917-2.225l2.131-1.624c1.604-1.224,1.299-2.224-0.68-2.224h-2.651h-3.597l-1.12-3.613l-0.806-2.6
			c-0.615-1.987-1.621-1.987-2.237,0L9.98,5.09L8.86,8.703H5.264z"/>
		
			<linearGradient id="SVGID_1_" gradientUnits="userSpaceOnUse" x1="11.8647" y1="22.1543" x2="11.8647" y2="0.1528" gradientTransform="matrix(1 0 0 -1 0.04 23.1543)">
			<stop  offset="0" style="stop-color:#FFFFFF;stop-opacity:0"/>
			<stop  offset="0.0849" style="stop-color:#F6F6F6;stop-opacity:0.0212"/>
			<stop  offset="0.2235" style="stop-color:#DEDEDE;stop-opacity:0.0559"/>
			<stop  offset="0.3985" style="stop-color:#B6B6B6;stop-opacity:0.0996"/>
			<stop  offset="0.6031" style="stop-color:#7F7F7F;stop-opacity:0.1508"/>
			<stop  offset="0.8298" style="stop-color:#393939;stop-opacity:0.2075"/>
			<stop  offset="1" style="stop-color:#000000;stop-opacity:0.25"/>
		</linearGradient>
		<path fill="url(#SVGID_1_)" d="M5.264,8.703h-2.65c-1.979,0-2.285,1-0.681,2.224l2.131,1.624l2.918,2.225l-1.119,3.611
			l-0.806,2.602c-0.615,1.984,0.195,2.609,1.8,1.387l2.13-1.623l2.918-2.225l2.918,2.225l2.13,1.623
			c1.604,1.225,2.414,0.6,1.799-1.387l-0.806-2.602l-1.118-3.611l2.917-2.225l2.131-1.624c1.604-1.224,1.299-2.224-0.68-2.224
			h-2.651h-3.597l-1.12-3.613l-0.806-2.6c-0.615-1.987-1.621-1.987-2.237,0L9.98,5.09L8.86,8.703H5.264z"/>
	</g>
	<g id="Vide_5_">
		<g>
			<path fill="#9C9E9F" d="M35.906,2.21c0.063,0.131,0.138,0.313,0.215,0.561l0.806,2.599l1.119,3.612l0.206,0.667h0.697h3.597
				h2.651c0.276,0,0.48,0.024,0.622,0.053c-0.103,0.12-0.266,0.281-0.516,0.472l-2.131,1.624l-2.917,2.224l-0.526,0.401l0.196,0.632
				l1.118,3.611l0.806,2.602c0.09,0.293,0.133,0.512,0.151,0.668c-0.12-0.064-0.277-0.164-0.474-0.313L39.396,20l-2.918-2.225
				l-0.573-0.437l-0.573,0.437L32.414,20l-2.131,1.623c-0.196,0.15-0.354,0.249-0.474,0.313c0.019-0.156,0.061-0.373,0.152-0.666
				l0.805-2.602l1.119-3.611l0.196-0.632l-0.526-0.401L28.637,11.8l-2.13-1.624c-0.251-0.191-0.414-0.353-0.516-0.472
				c0.142-0.029,0.345-0.053,0.622-0.053h2.65h3.597h0.697l0.206-0.666l1.121-3.613l0.804-2.599
				C35.768,2.523,35.842,2.341,35.906,2.21 M35.906,1c-0.405,0-0.811,0.497-1.119,1.491l-0.805,2.6l-1.12,3.612h-3.597h-2.65
				c-1.979,0-2.285,1-0.681,2.224l2.131,1.624l2.918,2.225l-1.119,3.611l-0.806,2.602C28.657,22.284,28.863,23,29.502,23
				c0.339,0,0.8-0.202,1.356-0.626l2.13-1.623l2.918-2.224l2.918,2.224l2.13,1.623C41.511,22.798,41.972,23,42.311,23
				c0.639,0,0.844-0.716,0.442-2.014l-0.805-2.602l-1.119-3.611l2.917-2.224l2.131-1.624c1.604-1.224,1.299-2.224-0.68-2.224h-2.651
				h-3.597L37.83,5.09l-0.806-2.6C36.717,1.497,36.312,1,35.906,1L35.906,1z"/>
		</g>
	</g>
	<g id="clic_1_">
		<path fill="#FF0000" d="M53.264,8.703h-2.651c-1.978,0-2.284,1-0.68,2.224l2.131,1.624l2.918,2.225l-1.119,3.611l-0.806,2.602
			c-0.615,1.984,0.195,2.609,1.799,1.387l2.131-1.623l2.918-2.225l2.918,2.225l2.129,1.623c1.604,1.225,2.415,0.6,1.8-1.387
			l-0.806-2.602l-1.119-3.611l2.918-2.225l2.131-1.624c1.604-1.224,1.298-2.224-0.681-2.224h-2.65h-3.597l-1.12-3.613l-0.806-2.6
			c-0.616-1.987-1.621-1.987-2.237,0l-0.806,2.6L56.86,8.703H53.264z"/>
		
			<linearGradient id="SVGID_2_" gradientUnits="userSpaceOnUse" x1="59.8643" y1="22.1543" x2="59.8643" y2="0.1528" gradientTransform="matrix(1 0 0 -1 0.04 23.1543)">
			<stop  offset="0" style="stop-color:#FFFFFF;stop-opacity:0"/>
			<stop  offset="0.0849" style="stop-color:#F6F6F6;stop-opacity:0.0212"/>
			<stop  offset="0.2235" style="stop-color:#DEDEDE;stop-opacity:0.0559"/>
			<stop  offset="0.3985" style="stop-color:#B6B6B6;stop-opacity:0.0996"/>
			<stop  offset="0.6031" style="stop-color:#7F7F7F;stop-opacity:0.1508"/>
			<stop  offset="0.8298" style="stop-color:#393939;stop-opacity:0.2075"/>
			<stop  offset="1" style="stop-color:#000000;stop-opacity:0.25"/>
		</linearGradient>
		<path fill="url(#SVGID_2_)" d="M53.264,8.703h-2.65c-1.979,0-2.285,1-0.681,2.224l2.131,1.624l2.918,2.225l-1.119,3.611
			l-0.806,2.602c-0.615,1.984,0.195,2.609,1.8,1.387l2.13-1.623l2.918-2.225l2.918,2.225l2.13,1.623
			c1.604,1.225,2.414,0.6,1.799-1.387l-0.806-2.602l-1.118-3.611l2.917-2.225l2.131-1.624c1.604-1.224,1.298-2.224-0.68-2.224
			h-2.651h-3.597l-1.12-3.613l-0.806-2.6c-0.615-1.987-1.621-1.987-2.237,0l-0.805,2.6l-1.12,3.612L53.264,8.703L53.264,8.703z"/>
		<g>
			<g>
				<path fill="#0A50A1" d="M59.904,2.21c0.063,0.131,0.138,0.313,0.215,0.561l0.806,2.599l1.119,3.612
					c0.122,0.396,0.488,0.667,0.903,0.667h3.597h2.651c0.276,0,0.48,0.024,0.622,0.053c-0.103,0.12-0.265,0.281-0.516,0.472
					l-2.131,1.624l-2.917,2.224c-0.316,0.242-0.448,0.653-0.33,1.033l1.117,3.61l0.807,2.603c0.09,0.293,0.133,0.51,0.151,0.666
					c-0.12-0.063-0.277-0.162-0.474-0.312l-2.13-1.623l-2.918-2.224c-0.169-0.129-0.371-0.194-0.573-0.194
					c-0.202,0-0.404,0.063-0.573,0.194l-2.918,2.224l-2.131,1.623c-0.196,0.149-0.354,0.249-0.474,0.313
					c0.019-0.156,0.061-0.375,0.152-0.668l0.805-2.601l1.119-3.61c0.118-0.379-0.014-0.793-0.33-1.033l-2.918-2.225l-2.13-1.624
					c-0.251-0.191-0.414-0.352-0.516-0.472c0.142-0.029,0.345-0.053,0.622-0.053h2.65h3.597c0.415,0,0.781-0.27,0.903-0.666
					l1.121-3.613l0.804-2.599C59.766,2.523,59.84,2.341,59.904,2.21 M59.904,1c-0.405,0-0.811,0.497-1.119,1.491l-0.805,2.6
					l-1.12,3.612h-3.597h-2.65c-1.979,0-2.285,1-0.681,2.224l2.131,1.624l2.918,2.225l-1.119,3.611l-0.806,2.602
					C52.655,22.284,52.861,23,53.5,23c0.339,0,0.8-0.202,1.356-0.626l2.13-1.623l2.918-2.224l2.918,2.224l2.13,1.623
					C65.509,22.798,65.97,23,66.309,23c0.639,0,0.844-0.716,0.442-2.014l-0.806-2.602l-1.118-3.611l2.917-2.224l2.131-1.624
					c1.604-1.224,1.298-2.224-0.68-2.224h-2.651h-3.597L61.828,5.09l-0.806-2.6C60.715,1.497,60.31,1,59.904,1L59.904,1z"/>
			</g>
		</g>
	</g>
	<g id="Grisé_2_">
		
			<linearGradient id="SVGID_3_" gradientUnits="userSpaceOnUse" x1="84.0566" y1="22.1543" x2="84.0566" y2="0.1528" gradientTransform="matrix(1 0 0 -1 0.04 23.1543)">
			<stop  offset="0" style="stop-color:#E9E9EA"/>
			<stop  offset="1" style="stop-color:#A7A8AA"/>
		</linearGradient>
		<path fill="url(#SVGID_3_)" d="M77.456,8.703h-2.651c-1.978,0-2.284,1-0.68,2.224l2.131,1.624l2.917,2.225l-1.119,3.611
			l-0.805,2.602c-0.615,1.984,0.194,2.609,1.799,1.387l2.13-1.623l2.919-2.225l2.917,2.225l2.13,1.623
			c1.604,1.225,2.415,0.6,1.8-1.387l-0.806-2.602l-1.119-3.611l2.918-2.225l2.131-1.624c1.604-1.224,1.299-2.224-0.682-2.224h-2.649
			H87.14L86.02,5.09l-0.805-2.6c-0.616-1.987-1.622-1.987-2.237,0l-0.806,2.6l-1.119,3.612L77.456,8.703L77.456,8.703z"/>
	</g>
</g>
<g id="_x30_2">
	<g id="Normal_2_">
		<path fill="#EC7007" d="M101.359,8.703h-2.65c-1.979,0-2.285,1-0.681,2.224l2.131,1.624l2.918,2.225l-1.119,3.611l-0.806,2.602
			c-0.615,1.984,0.195,2.609,1.8,1.387l2.13-1.623L108,18.527l2.918,2.224l2.13,1.623c1.604,1.224,2.414,0.599,1.799-1.388
			l-0.806-2.602l-1.118-3.611l2.917-2.224l2.131-1.624c1.604-1.224,1.299-2.224-0.68-2.224h-2.651h-3.597l-1.119-3.612l-0.806-2.6
			c-0.615-1.987-1.621-1.987-2.237,0l-0.805,2.6l-1.12,3.612L101.359,8.703L101.359,8.703z"/>
		
			<linearGradient id="SVGID_4_" gradientUnits="userSpaceOnUse" x1="107.9595" y1="22.1543" x2="107.9595" y2="0.1538" gradientTransform="matrix(1 0 0 -1 0.04 23.1543)">
			<stop  offset="0" style="stop-color:#FFFFFF;stop-opacity:0"/>
			<stop  offset="0.0849" style="stop-color:#F6F6F6;stop-opacity:0.0212"/>
			<stop  offset="0.2235" style="stop-color:#DEDEDE;stop-opacity:0.0559"/>
			<stop  offset="0.3985" style="stop-color:#B6B6B6;stop-opacity:0.0996"/>
			<stop  offset="0.6031" style="stop-color:#7F7F7F;stop-opacity:0.1508"/>
			<stop  offset="0.8298" style="stop-color:#393939;stop-opacity:0.2075"/>
			<stop  offset="1" style="stop-color:#000000;stop-opacity:0.25"/>
		</linearGradient>
		<path fill="url(#SVGID_4_)" d="M101.359,8.703h-2.65c-1.979,0-2.285,1-0.681,2.224l2.131,1.624l2.918,2.225l-1.119,3.611
			l-0.806,2.602c-0.615,1.984,0.195,2.609,1.8,1.387l2.13-1.623L108,18.527l2.918,2.224l2.13,1.623
			c1.604,1.224,2.414,0.599,1.799-1.388l-0.806-2.602l-1.118-3.611l2.917-2.224l2.131-1.624c1.604-1.224,1.299-2.224-0.68-2.224
			h-2.651h-3.597l-1.119-3.612l-0.806-2.6c-0.615-1.987-1.621-1.987-2.237,0l-0.805,2.6l-1.12,3.612L101.359,8.703L101.359,8.703z"
			/>
	</g>
	<g id="Vide_1_">
		<g>
			<path fill="#9C9E9F" d="M132.002,2.21c0.063,0.131,0.138,0.313,0.215,0.561l0.806,2.599l1.119,3.612l0.206,0.667h0.697h3.597
				h2.651c0.276,0,0.48,0.024,0.622,0.053c-0.103,0.12-0.266,0.281-0.516,0.472l-2.131,1.624l-2.917,2.224l-0.526,0.401l0.196,0.632
				l1.118,3.611l0.806,2.602c0.09,0.293,0.133,0.512,0.151,0.668c-0.12-0.064-0.277-0.164-0.474-0.313L135.492,20l-2.918-2.225
				l-0.573-0.437l-0.573,0.437L128.51,20l-2.131,1.623c-0.196,0.15-0.354,0.249-0.474,0.313c0.019-0.156,0.061-0.373,0.152-0.666
				l0.805-2.602l1.119-3.611l0.196-0.632l-0.526-0.401l-2.918-2.224l-2.13-1.624c-0.251-0.191-0.414-0.353-0.516-0.472
				c0.142-0.029,0.345-0.053,0.622-0.053h2.65h3.597h0.697l0.206-0.666l1.121-3.613l0.804-2.599
				C131.863,2.523,131.938,2.341,132.002,2.21 M132.002,1c-0.405,0-0.811,0.497-1.119,1.491l-0.805,2.6l-1.12,3.612h-3.597h-2.65
				c-1.979,0-2.285,1-0.681,2.224l2.131,1.624l2.918,2.225l-1.119,3.611l-0.806,2.602c-0.401,1.297-0.195,2.013,0.443,2.013
				c0.339,0,0.8-0.202,1.356-0.626l2.13-1.623l2.918-2.225l2.918,2.225l2.13,1.623c0.557,0.424,1.018,0.626,1.356,0.626
				c0.639,0,0.844-0.716,0.442-2.013l-0.805-2.602l-1.119-3.611l2.917-2.225l2.131-1.624c1.604-1.224,1.299-2.224-0.68-2.224h-2.651
				h-3.597l-1.119-3.612l-0.806-2.6C132.813,1.497,132.407,1,132.002,1L132.002,1z"/>
		</g>
	</g>
	<g id="clic_2_">
		<path fill="#EC7007" d="M149.359,8.703h-2.651c-1.978,0-2.284,1-0.68,2.224l2.131,1.624l2.918,2.225l-1.119,3.611l-0.806,2.602
			c-0.615,1.984,0.195,2.609,1.799,1.387l2.131-1.623L156,18.527l2.918,2.224l2.129,1.623c1.604,1.224,2.415,0.599,1.8-1.388
			l-0.806-2.602l-1.119-3.611l2.918-2.224l2.131-1.624c1.604-1.224,1.298-2.224-0.681-2.224h-2.65h-3.597l-1.119-3.612l-0.806-2.6
			c-0.616-1.987-1.621-1.987-2.237,0l-0.806,2.6l-1.119,3.612L149.359,8.703L149.359,8.703z"/>
		
			<linearGradient id="SVGID_5_" gradientUnits="userSpaceOnUse" x1="155.9595" y1="22.1543" x2="155.9595" y2="0.1538" gradientTransform="matrix(1 0 0 -1 0.04 23.1543)">
			<stop  offset="0" style="stop-color:#FFFFFF;stop-opacity:0"/>
			<stop  offset="0.0849" style="stop-color:#F6F6F6;stop-opacity:0.0212"/>
			<stop  offset="0.2235" style="stop-color:#DEDEDE;stop-opacity:0.0559"/>
			<stop  offset="0.3985" style="stop-color:#B6B6B6;stop-opacity:0.0996"/>
			<stop  offset="0.6031" style="stop-color:#7F7F7F;stop-opacity:0.1508"/>
			<stop  offset="0.8298" style="stop-color:#393939;stop-opacity:0.2075"/>
			<stop  offset="1" style="stop-color:#000000;stop-opacity:0.25"/>
		</linearGradient>
		<path fill="url(#SVGID_5_)" d="M149.359,8.703h-2.65c-1.979,0-2.285,1-0.681,2.224l2.131,1.624l2.918,2.225l-1.119,3.611
			l-0.806,2.602c-0.615,1.984,0.195,2.609,1.8,1.387l2.13-1.623L156,18.527l2.918,2.224l2.13,1.623
			c1.604,1.224,2.414,0.599,1.799-1.388l-0.806-2.602l-1.118-3.611l2.917-2.224l2.131-1.624c1.604-1.224,1.298-2.224-0.68-2.224
			h-2.651h-3.597l-1.119-3.612l-0.806-2.6c-0.615-1.987-1.621-1.987-2.237,0l-0.805,2.6l-1.12,3.612L149.359,8.703L149.359,8.703z"
			/>
		<g>
			<g>
				<path fill="#0A50A1" d="M156,2.21c0.063,0.131,0.138,0.313,0.215,0.561l0.806,2.599l1.119,3.612
					c0.122,0.396,0.488,0.667,0.903,0.667h3.597h2.651c0.276,0,0.48,0.024,0.622,0.053c-0.103,0.12-0.265,0.281-0.516,0.472
					l-2.131,1.624l-2.917,2.224c-0.316,0.242-0.448,0.653-0.33,1.033l1.117,3.61l0.807,2.603c0.09,0.293,0.133,0.51,0.151,0.666
					c-0.12-0.063-0.277-0.162-0.474-0.312l-2.13-1.623l-2.918-2.224c-0.169-0.129-0.371-0.194-0.573-0.194s-0.404,0.063-0.573,0.194
					l-2.918,2.224l-2.131,1.623c-0.196,0.149-0.354,0.249-0.474,0.313c0.019-0.156,0.061-0.375,0.152-0.668l0.805-2.601l1.119-3.61
					c0.118-0.379-0.014-0.793-0.33-1.033l-2.918-2.225l-2.13-1.624c-0.251-0.191-0.414-0.352-0.516-0.472
					c0.142-0.029,0.345-0.053,0.622-0.053h2.65h3.597c0.415,0,0.781-0.27,0.903-0.666l1.121-3.613l0.804-2.599
					C155.861,2.523,155.936,2.341,156,2.21 M156,1c-0.405,0-0.811,0.497-1.119,1.491l-0.805,2.6l-1.12,3.612h-3.597h-2.65
					c-1.979,0-2.285,1-0.681,2.224l2.131,1.624l2.918,2.225l-1.119,3.611l-0.806,2.602c-0.401,1.297-0.195,2.013,0.443,2.013
					c0.339,0,0.8-0.202,1.356-0.626l2.13-1.623L156,18.527l2.918,2.224l2.13,1.623c0.557,0.424,1.018,0.626,1.356,0.626
					c0.639,0,0.844-0.716,0.442-2.014l-0.806-2.602l-1.118-3.611l2.917-2.224l2.131-1.624c1.604-1.224,1.298-2.224-0.68-2.224
					h-2.651h-3.597l-1.119-3.612l-0.806-2.6C156.811,1.497,156.405,1,156,1L156,1z"/>
			</g>
		</g>
	</g>
	<g id="Grisé_1_">
		
			<linearGradient id="SVGID_6_" gradientUnits="userSpaceOnUse" x1="180.1519" y1="22.1533" x2="180.1519" y2="0.1528" gradientTransform="matrix(1 0 0 -1 0.04 23.1543)">
			<stop  offset="0" style="stop-color:#E9E9EA"/>
			<stop  offset="1" style="stop-color:#A7A8AA"/>
		</linearGradient>
		<path fill="url(#SVGID_6_)" d="M173.552,8.703H170.9c-1.978,0-2.284,1-0.68,2.224l2.131,1.624l2.917,2.225l-1.119,3.611
			l-0.805,2.602c-0.615,1.984,0.194,2.609,1.799,1.387l2.13-1.623l2.919-2.225l2.917,2.225l2.13,1.623
			c1.604,1.225,2.415,0.6,1.8-1.387l-0.806-2.602l-1.119-3.611l2.918-2.225l2.131-1.624c1.604-1.224,1.299-2.224-0.682-2.224h-2.649
			h-3.597l-1.12-3.612l-0.805-2.6c-0.616-1.987-1.622-1.987-2.237,0l-0.806,2.6l-1.119,3.612H173.552z"/>
	</g>
</g>
<g id="_x30_3">
	<g id="Normal_3_">
		<path fill="#FE9F34" d="M197.359,8.703h-2.65c-1.979,0-2.285,1-0.681,2.224l2.131,1.624l2.918,2.225l-1.119,3.611l-0.806,2.602
			c-0.615,1.984,0.195,2.609,1.8,1.387l2.13-1.623L204,18.527l2.918,2.224l2.13,1.623c1.604,1.224,2.414,0.599,1.799-1.388
			l-0.806-2.602l-1.118-3.611l2.917-2.224l2.131-1.624c1.604-1.224,1.299-2.224-0.68-2.224h-2.651h-3.597l-1.119-3.612l-0.806-2.6
			c-0.615-1.987-1.621-1.987-2.237,0l-0.805,2.6l-1.12,3.612L197.359,8.703L197.359,8.703z"/>
		
			<linearGradient id="SVGID_7_" gradientUnits="userSpaceOnUse" x1="203.9595" y1="22.1543" x2="203.9595" y2="0.1538" gradientTransform="matrix(1 0 0 -1 0.04 23.1543)">
			<stop  offset="0" style="stop-color:#FFFFFF;stop-opacity:0"/>
			<stop  offset="0.0849" style="stop-color:#F6F6F6;stop-opacity:0.0212"/>
			<stop  offset="0.2235" style="stop-color:#DEDEDE;stop-opacity:0.0559"/>
			<stop  offset="0.3985" style="stop-color:#B6B6B6;stop-opacity:0.0996"/>
			<stop  offset="0.6031" style="stop-color:#7F7F7F;stop-opacity:0.1508"/>
			<stop  offset="0.8298" style="stop-color:#393939;stop-opacity:0.2075"/>
			<stop  offset="1" style="stop-color:#000000;stop-opacity:0.25"/>
		</linearGradient>
		<path fill="url(#SVGID_7_)" d="M197.359,8.703h-2.65c-1.979,0-2.285,1-0.681,2.224l2.131,1.624l2.918,2.225l-1.119,3.611
			l-0.806,2.602c-0.615,1.984,0.195,2.609,1.8,1.387l2.13-1.623L204,18.527l2.918,2.224l2.13,1.623
			c1.604,1.224,2.414,0.599,1.799-1.388l-0.806-2.602l-1.118-3.611l2.917-2.224l2.131-1.624c1.604-1.224,1.299-2.224-0.68-2.224
			h-2.651h-3.597l-1.119-3.612l-0.806-2.6c-0.615-1.987-1.621-1.987-2.237,0l-0.805,2.6l-1.12,3.612L197.359,8.703L197.359,8.703z"
			/>
	</g>
	<g id="Vide_2_">
		<g>
			<path fill="#9C9E9F" d="M228.002,2.21c0.063,0.131,0.138,0.313,0.215,0.561l0.806,2.599l1.119,3.612l0.206,0.667h0.697h3.597
				h2.651c0.276,0,0.48,0.024,0.622,0.053c-0.103,0.12-0.266,0.281-0.516,0.472l-2.131,1.624l-2.917,2.224l-0.526,0.401l0.196,0.632
				l1.118,3.611l0.806,2.602c0.09,0.293,0.133,0.512,0.151,0.668c-0.12-0.064-0.277-0.164-0.474-0.313L231.492,20l-2.918-2.225
				l-0.573-0.437l-0.573,0.437L224.51,20l-2.131,1.623c-0.196,0.15-0.354,0.249-0.474,0.313c0.019-0.156,0.061-0.373,0.152-0.666
				l0.805-2.602l1.119-3.611l0.196-0.632l-0.526-0.401l-2.918-2.224l-2.13-1.624c-0.251-0.191-0.414-0.353-0.516-0.472
				c0.142-0.029,0.345-0.053,0.622-0.053h2.65h3.597h0.697l0.206-0.666l1.121-3.613l0.804-2.599
				C227.863,2.523,227.938,2.341,228.002,2.21 M228.002,1c-0.405,0-0.811,0.497-1.119,1.491l-0.805,2.6l-1.12,3.612h-3.597h-2.65
				c-1.979,0-2.285,1-0.681,2.224l2.131,1.624l2.918,2.225l-1.119,3.611l-0.806,2.602c-0.401,1.297-0.195,2.013,0.443,2.013
				c0.339,0,0.8-0.202,1.356-0.626l2.13-1.623l2.918-2.225l2.918,2.225l2.13,1.623c0.557,0.424,1.018,0.626,1.356,0.626
				c0.639,0,0.844-0.716,0.442-2.013l-0.805-2.602l-1.119-3.611l2.917-2.225l2.131-1.624c1.604-1.224,1.299-2.224-0.68-2.224h-2.651
				h-3.597l-1.119-3.612l-0.806-2.6C228.813,1.497,228.407,1,228.002,1L228.002,1z"/>
		</g>
	</g>
	<g id="clic_3_">
		<path fill="#FE9F34" d="M245.359,8.703h-2.651c-1.978,0-2.284,1-0.681,2.224l2.132,1.624l2.918,2.225l-1.119,3.611l-0.806,2.602
			c-0.615,1.984,0.195,2.609,1.799,1.387l2.131-1.623L252,18.527l2.918,2.224l2.129,1.623c1.604,1.224,2.415,0.599,1.801-1.388
			l-0.807-2.602l-1.119-3.611l2.918-2.224l2.131-1.624c1.604-1.224,1.299-2.224-0.681-2.224h-2.649h-3.598l-1.119-3.612l-0.806-2.6
			c-0.616-1.987-1.621-1.987-2.237,0l-0.806,2.6l-1.119,3.612L245.359,8.703L245.359,8.703z"/>
		
			<linearGradient id="SVGID_8_" gradientUnits="userSpaceOnUse" x1="251.959" y1="22.1543" x2="251.959" y2="0.1538" gradientTransform="matrix(1 0 0 -1 0.04 23.1543)">
			<stop  offset="0" style="stop-color:#FFFFFF;stop-opacity:0"/>
			<stop  offset="0.0849" style="stop-color:#F6F6F6;stop-opacity:0.0212"/>
			<stop  offset="0.2235" style="stop-color:#DEDEDE;stop-opacity:0.0559"/>
			<stop  offset="0.3985" style="stop-color:#B6B6B6;stop-opacity:0.0996"/>
			<stop  offset="0.6031" style="stop-color:#7F7F7F;stop-opacity:0.1508"/>
			<stop  offset="0.8298" style="stop-color:#393939;stop-opacity:0.2075"/>
			<stop  offset="1" style="stop-color:#000000;stop-opacity:0.25"/>
		</linearGradient>
		<path fill="url(#SVGID_8_)" d="M245.359,8.703h-2.65c-1.979,0-2.285,1-0.682,2.224l2.132,1.624l2.918,2.225l-1.119,3.611
			l-0.806,2.602c-0.615,1.984,0.195,2.609,1.8,1.387l2.13-1.623L252,18.527l2.918,2.224l2.13,1.623
			c1.604,1.224,2.414,0.599,1.8-1.388l-0.807-2.602l-1.118-3.611l2.917-2.224l2.131-1.624c1.604-1.224,1.299-2.224-0.68-2.224h-2.65
			h-3.598l-1.119-3.612l-0.806-2.6c-0.615-1.987-1.621-1.987-2.237,0l-0.805,2.6l-1.12,3.612L245.359,8.703L245.359,8.703z"/>
		<g>
			<g>
				<path fill="#0A50A1" d="M252,2.21c0.063,0.131,0.139,0.313,0.215,0.561l0.807,2.599l1.119,3.612
					c0.121,0.396,0.487,0.667,0.902,0.667h3.598h2.65c0.275,0,0.48,0.024,0.622,0.053c-0.103,0.12-0.265,0.281-0.517,0.472
					l-2.131,1.624l-2.916,2.224c-0.316,0.242-0.449,0.653-0.33,1.033l1.117,3.61l0.807,2.603c0.09,0.293,0.133,0.51,0.15,0.666
					c-0.119-0.063-0.277-0.162-0.474-0.312l-2.13-1.623l-2.918-2.224c-0.17-0.129-0.371-0.194-0.573-0.194s-0.403,0.063-0.573,0.194
					l-2.918,2.224l-2.131,1.623c-0.195,0.149-0.354,0.249-0.475,0.313c0.02-0.156,0.062-0.375,0.152-0.668l0.805-2.601l1.119-3.61
					c0.119-0.379-0.014-0.793-0.33-1.033l-2.918-2.225l-2.129-1.624c-0.252-0.191-0.414-0.352-0.517-0.472
					c0.142-0.029,0.345-0.053,0.622-0.053h2.65h3.597c0.415,0,0.78-0.27,0.903-0.666l1.121-3.613l0.804-2.599
					C251.861,2.523,251.936,2.341,252,2.21 M252,1c-0.404,0-0.811,0.497-1.119,1.491l-0.805,2.6l-1.12,3.612h-3.597h-2.65
					c-1.979,0-2.285,1-0.682,2.224l2.132,1.624l2.918,2.225l-1.119,3.611l-0.806,2.602c-0.401,1.297-0.195,2.013,0.443,2.013
					c0.338,0,0.799-0.202,1.355-0.626l2.13-1.623L252,18.527l2.918,2.224l2.13,1.623c0.558,0.424,1.019,0.626,1.356,0.626
					c0.639,0,0.844-0.716,0.441-2.014l-0.806-2.602l-1.118-3.611l2.917-2.224l2.131-1.624c1.604-1.224,1.298-2.224-0.68-2.224
					h-2.651h-3.597l-1.119-3.612l-0.806-2.6C252.811,1.497,252.404,1,252,1L252,1z"/>
			</g>
		</g>
	</g>
	<g id="Grisé_3_">
		
			<linearGradient id="SVGID_9_" gradientUnits="userSpaceOnUse" x1="276.1523" y1="22.1533" x2="276.1523" y2="0.1528" gradientTransform="matrix(1 0 0 -1 0.04 23.1543)">
			<stop  offset="0" style="stop-color:#E9E9EA"/>
			<stop  offset="1" style="stop-color:#A7A8AA"/>
		</linearGradient>
		<path fill="url(#SVGID_9_)" d="M269.552,8.703H266.9c-1.979,0-2.284,1-0.68,2.224l2.131,1.624l2.916,2.225l-1.119,3.611
			l-0.805,2.602c-0.615,1.984,0.194,2.609,1.799,1.387l2.131-1.623l2.918-2.225l2.918,2.225l2.13,1.623
			c1.604,1.225,2.415,0.6,1.8-1.387l-0.807-2.602l-1.118-3.611l2.918-2.225l2.131-1.624c1.604-1.224,1.299-2.224-0.683-2.224h-2.648
			h-3.598l-1.119-3.612l-0.805-2.6c-0.616-1.987-1.623-1.987-2.237,0l-0.806,2.6l-1.119,3.612H269.552z"/>
	</g>
</g>
<g id="_x30_4">
	<g id="Normal_4_">
		<path fill="#FFFF00" d="M293.359,8.703h-2.65c-1.979,0-2.285,1-0.682,2.224l2.132,1.624l2.918,2.225l-1.119,3.611l-0.806,2.602
			c-0.615,1.984,0.195,2.609,1.8,1.387l2.13-1.623L300,18.527l2.918,2.224l2.13,1.623c1.604,1.224,2.414,0.599,1.799-1.388
			l-0.806-2.602l-1.118-3.611l2.917-2.224l2.131-1.624c1.604-1.224,1.3-2.224-0.68-2.224h-2.651h-3.597l-1.119-3.612l-0.806-2.6
			c-0.615-1.987-1.621-1.987-2.237,0l-0.805,2.6l-1.12,3.612L293.359,8.703L293.359,8.703z"/>
		
			<linearGradient id="SVGID_10_" gradientUnits="userSpaceOnUse" x1="299.959" y1="22.1543" x2="299.959" y2="0.1538" gradientTransform="matrix(1 0 0 -1 0.04 23.1543)">
			<stop  offset="0" style="stop-color:#FFFFFF;stop-opacity:0"/>
			<stop  offset="0.0849" style="stop-color:#F6F6F6;stop-opacity:0.0212"/>
			<stop  offset="0.2235" style="stop-color:#DEDEDE;stop-opacity:0.0559"/>
			<stop  offset="0.3985" style="stop-color:#B6B6B6;stop-opacity:0.0996"/>
			<stop  offset="0.6031" style="stop-color:#7F7F7F;stop-opacity:0.1508"/>
			<stop  offset="0.8298" style="stop-color:#393939;stop-opacity:0.2075"/>
			<stop  offset="1" style="stop-color:#000000;stop-opacity:0.25"/>
		</linearGradient>
		<path fill="url(#SVGID_10_)" d="M293.359,8.703h-2.65c-1.979,0-2.285,1-0.682,2.224l2.132,1.624l2.918,2.225l-1.119,3.611
			l-0.806,2.602c-0.615,1.984,0.195,2.609,1.8,1.387l2.13-1.623L300,18.527l2.918,2.224l2.13,1.623
			c1.604,1.224,2.414,0.599,1.799-1.388l-0.806-2.602l-1.118-3.611l2.917-2.224l2.131-1.624c1.604-1.224,1.3-2.224-0.68-2.224
			h-2.651h-3.597l-1.119-3.612l-0.806-2.6c-0.615-1.987-1.621-1.987-2.237,0l-0.805,2.6l-1.12,3.612L293.359,8.703L293.359,8.703z"
			/>
	</g>
	<g id="Vide_3_">
		<g>
			<path fill="#9C9E9F" d="M324.002,2.21c0.063,0.131,0.138,0.313,0.215,0.561l0.807,2.599l1.118,3.612l0.206,0.667h0.697h3.597
				h2.651c0.276,0,0.48,0.024,0.622,0.053c-0.104,0.12-0.266,0.281-0.516,0.472l-2.132,1.624l-2.917,2.224l-0.525,0.401l0.195,0.632
				l1.118,3.611l0.807,2.602c0.09,0.293,0.133,0.512,0.15,0.668c-0.12-0.064-0.276-0.164-0.474-0.313L327.492,20l-2.918-2.225
				l-0.573-0.437l-0.573,0.437L320.51,20l-2.131,1.623c-0.196,0.15-0.354,0.249-0.474,0.313c0.019-0.156,0.061-0.373,0.151-0.666
				l0.806-2.602l1.119-3.611l0.195-0.632l-0.525-0.401l-2.918-2.224l-2.131-1.624c-0.251-0.191-0.413-0.353-0.516-0.472
				c0.143-0.029,0.345-0.053,0.622-0.053h2.65h3.597h0.697l0.206-0.666l1.12-3.613l0.805-2.599
				C323.863,2.523,323.938,2.341,324.002,2.21 M324.002,1c-0.405,0-0.811,0.497-1.119,1.491l-0.805,2.6l-1.12,3.612h-3.597h-2.65
				c-1.979,0-2.285,1-0.681,2.224l2.131,1.624l2.918,2.225l-1.119,3.611l-0.806,2.602c-0.401,1.297-0.195,2.013,0.442,2.013
				c0.34,0,0.801-0.202,1.356-0.626l2.13-1.623l2.918-2.225l2.918,2.225l2.13,1.623c0.558,0.424,1.019,0.626,1.356,0.626
				c0.639,0,0.844-0.716,0.441-2.013l-0.805-2.602l-1.119-3.611l2.917-2.225l2.131-1.624c1.604-1.224,1.3-2.224-0.68-2.224h-2.651
				h-3.597l-1.119-3.612l-0.806-2.6C324.813,1.497,324.407,1,324.002,1L324.002,1z"/>
		</g>
	</g>
	<g id="clic_4_">
		<path fill="#FFFF00" d="M341.359,8.703h-2.651c-1.978,0-2.284,1-0.68,2.224l2.131,1.624l2.918,2.225l-1.119,3.611l-0.806,2.602
			c-0.615,1.984,0.194,2.609,1.799,1.387l2.131-1.623L348,18.527l2.918,2.224l2.129,1.623c1.604,1.224,2.415,0.599,1.8-1.388
			l-0.806-2.602l-1.119-3.611l2.918-2.224l2.131-1.624c1.604-1.224,1.298-2.224-0.681-2.224h-2.65h-3.597l-1.119-3.612l-0.806-2.6
			c-0.616-1.987-1.621-1.987-2.237,0l-0.806,2.6l-1.119,3.612L341.359,8.703L341.359,8.703z"/>
		
			<linearGradient id="SVGID_11_" gradientUnits="userSpaceOnUse" x1="347.959" y1="22.1543" x2="347.959" y2="0.1538" gradientTransform="matrix(1 0 0 -1 0.04 23.1543)">
			<stop  offset="0" style="stop-color:#FFFFFF;stop-opacity:0"/>
			<stop  offset="0.0849" style="stop-color:#F6F6F6;stop-opacity:0.0212"/>
			<stop  offset="0.2235" style="stop-color:#DEDEDE;stop-opacity:0.0559"/>
			<stop  offset="0.3985" style="stop-color:#B6B6B6;stop-opacity:0.0996"/>
			<stop  offset="0.6031" style="stop-color:#7F7F7F;stop-opacity:0.1508"/>
			<stop  offset="0.8298" style="stop-color:#393939;stop-opacity:0.2075"/>
			<stop  offset="1" style="stop-color:#000000;stop-opacity:0.25"/>
		</linearGradient>
		<path fill="url(#SVGID_11_)" d="M341.359,8.703h-2.65c-1.979,0-2.285,1-0.681,2.224l2.131,1.624l2.918,2.225l-1.119,3.611
			l-0.806,2.602c-0.615,1.984,0.194,2.609,1.8,1.387l2.13-1.623L348,18.527l2.918,2.224l2.13,1.623
			c1.604,1.224,2.414,0.599,1.799-1.388l-0.806-2.602l-1.118-3.611l2.917-2.224l2.131-1.624c1.604-1.224,1.298-2.224-0.68-2.224
			h-2.651h-3.597l-1.119-3.612l-0.806-2.6c-0.615-1.987-1.621-1.987-2.237,0l-0.805,2.6l-1.12,3.612L341.359,8.703L341.359,8.703z"
			/>
		<g>
			<g>
				<path fill="#0A50A1" d="M348,2.21c0.063,0.131,0.138,0.313,0.215,0.561l0.806,2.599l1.119,3.612
					c0.122,0.396,0.488,0.667,0.903,0.667h3.597h2.651c0.276,0,0.479,0.024,0.622,0.053c-0.104,0.12-0.265,0.281-0.516,0.472
					l-2.132,1.624l-2.917,2.224c-0.315,0.242-0.447,0.653-0.33,1.033l1.117,3.61l0.808,2.603c0.09,0.293,0.133,0.51,0.15,0.666
					c-0.12-0.063-0.276-0.162-0.474-0.312l-2.13-1.623l-2.918-2.224c-0.169-0.129-0.371-0.194-0.573-0.194s-0.404,0.063-0.573,0.194
					l-2.918,2.224l-2.131,1.623c-0.196,0.149-0.354,0.249-0.474,0.313c0.019-0.156,0.061-0.375,0.151-0.668l0.806-2.601l1.119-3.61
					c0.117-0.379-0.015-0.793-0.33-1.033l-2.918-2.225l-2.131-1.624c-0.251-0.191-0.414-0.352-0.516-0.472
					c0.142-0.029,0.345-0.053,0.622-0.053h2.65h3.597c0.415,0,0.781-0.27,0.903-0.666l1.12-3.613l0.805-2.599
					C347.861,2.523,347.936,2.341,348,2.21 M348,1c-0.405,0-0.811,0.497-1.119,1.491l-0.805,2.6l-1.12,3.612h-3.597h-2.65
					c-1.979,0-2.285,1-0.681,2.224l2.131,1.624l2.918,2.225l-1.119,3.611l-0.806,2.602c-0.401,1.297-0.195,2.013,0.442,2.013
					c0.339,0,0.801-0.202,1.356-0.626l2.13-1.623L348,18.527l2.918,2.224l2.13,1.623c0.558,0.424,1.019,0.626,1.356,0.626
					c0.639,0,0.844-0.716,0.441-2.014l-0.806-2.602l-1.118-3.611l2.917-2.224l2.131-1.624c1.604-1.224,1.298-2.224-0.68-2.224
					h-2.651h-3.597l-1.119-3.612l-0.806-2.6C348.811,1.497,348.405,1,348,1L348,1z"/>
			</g>
		</g>
	</g>
	<g id="Grisé_4_">
		
			<linearGradient id="SVGID_12_" gradientUnits="userSpaceOnUse" x1="372.1514" y1="22.1533" x2="372.1514" y2="0.1528" gradientTransform="matrix(1 0 0 -1 0.04 23.1543)">
			<stop  offset="0" style="stop-color:#E9E9EA"/>
			<stop  offset="1" style="stop-color:#A7A8AA"/>
		</linearGradient>
		<path fill="url(#SVGID_12_)" d="M365.552,8.703H362.9c-1.979,0-2.284,1-0.681,2.224l2.131,1.624l2.917,2.225l-1.118,3.611
			l-0.806,2.602c-0.614,1.984,0.194,2.609,1.799,1.387l2.131-1.623l2.919-2.225l2.917,2.225l2.13,1.623
			c1.604,1.225,2.415,0.6,1.8-1.387l-0.806-2.602l-1.119-3.611l2.918-2.225l2.131-1.624c1.604-1.224,1.299-2.224-0.682-2.224h-2.649
			h-3.597l-1.12-3.612l-0.805-2.6c-0.616-1.987-1.622-1.987-2.237,0l-0.807,2.6l-1.118,3.612H365.552z"/>
	</g>
</g>
<g id="_x30_5">
	<g id="Normal_5_">
		<path fill="#BADC00" d="M389.359,8.703h-2.65c-1.979,0-2.285,1-0.681,2.224l2.131,1.624l2.918,2.225l-1.119,3.611l-0.806,2.602
			c-0.615,1.984,0.194,2.609,1.8,1.387l2.13-1.623L396,18.527l2.918,2.224l2.13,1.623c1.604,1.224,2.414,0.599,1.799-1.388
			l-0.806-2.602l-1.118-3.611l2.917-2.224l2.131-1.624c1.604-1.224,1.3-2.224-0.68-2.224h-2.651h-3.597l-1.119-3.612l-0.806-2.6
			c-0.615-1.987-1.621-1.987-2.237,0l-0.805,2.6l-1.12,3.612L389.359,8.703L389.359,8.703z"/>
		
			<linearGradient id="SVGID_13_" gradientUnits="userSpaceOnUse" x1="395.96" y1="22.1543" x2="395.96" y2="0.1538" gradientTransform="matrix(1 0 0 -1 0.04 23.1543)">
			<stop  offset="0" style="stop-color:#FFFFFF;stop-opacity:0"/>
			<stop  offset="0.0849" style="stop-color:#F6F6F6;stop-opacity:0.0212"/>
			<stop  offset="0.2235" style="stop-color:#DEDEDE;stop-opacity:0.0559"/>
			<stop  offset="0.3985" style="stop-color:#B6B6B6;stop-opacity:0.0996"/>
			<stop  offset="0.6031" style="stop-color:#7F7F7F;stop-opacity:0.1508"/>
			<stop  offset="0.8298" style="stop-color:#393939;stop-opacity:0.2075"/>
			<stop  offset="1" style="stop-color:#000000;stop-opacity:0.25"/>
		</linearGradient>
		<path fill="url(#SVGID_13_)" d="M389.359,8.703h-2.65c-1.979,0-2.285,1-0.681,2.224l2.131,1.624l2.918,2.225l-1.119,3.611
			l-0.806,2.602c-0.615,1.984,0.194,2.609,1.8,1.387l2.13-1.623L396,18.527l2.918,2.224l2.13,1.623
			c1.604,1.224,2.414,0.599,1.799-1.388l-0.806-2.602l-1.118-3.611l2.917-2.224l2.131-1.624c1.604-1.224,1.3-2.224-0.68-2.224
			h-2.651h-3.597l-1.119-3.612l-0.806-2.6c-0.615-1.987-1.621-1.987-2.237,0l-0.805,2.6l-1.12,3.612L389.359,8.703L389.359,8.703z"
			/>
	</g>
	<g id="Vide_4_">
		<g>
			<path fill="#9C9E9F" d="M420.002,2.21c0.063,0.131,0.138,0.313,0.215,0.561l0.807,2.599l1.118,3.612l0.206,0.667h0.697h3.597
				h2.651c0.276,0,0.48,0.024,0.622,0.053c-0.104,0.12-0.266,0.281-0.516,0.472l-2.132,1.624l-2.917,2.224l-0.525,0.401l0.195,0.632
				l1.118,3.611l0.807,2.602c0.09,0.293,0.133,0.512,0.15,0.668c-0.12-0.064-0.276-0.164-0.474-0.313L423.492,20l-2.918-2.225
				l-0.573-0.437l-0.573,0.437L416.51,20l-2.131,1.623c-0.196,0.15-0.354,0.249-0.474,0.313c0.019-0.156,0.061-0.373,0.151-0.666
				l0.806-2.602l1.119-3.611l0.195-0.632l-0.525-0.401l-2.918-2.224l-2.131-1.624c-0.251-0.191-0.413-0.353-0.516-0.472
				c0.143-0.029,0.345-0.053,0.622-0.053h2.65h3.597h0.697l0.206-0.666l1.12-3.613l0.805-2.599
				C419.863,2.523,419.938,2.341,420.002,2.21 M420.002,1c-0.405,0-0.811,0.497-1.119,1.491l-0.805,2.6l-1.12,3.612h-3.597h-2.65
				c-1.979,0-2.285,1-0.681,2.224l2.131,1.624l2.918,2.225l-1.119,3.611l-0.806,2.602c-0.401,1.297-0.195,2.013,0.442,2.013
				c0.34,0,0.801-0.202,1.356-0.626l2.13-1.623l2.918-2.225l2.918,2.225l2.13,1.623c0.558,0.424,1.019,0.626,1.356,0.626
				c0.639,0,0.844-0.716,0.441-2.013l-0.805-2.602l-1.119-3.611l2.917-2.225l2.131-1.624c1.604-1.224,1.3-2.224-0.68-2.224h-2.651
				h-3.597l-1.119-3.612l-0.806-2.6C420.813,1.497,420.407,1,420.002,1L420.002,1z"/>
		</g>
	</g>
	<g id="clic_5_">
		<path fill="#BADC00" d="M437.359,8.703h-2.651c-1.978,0-2.284,1-0.68,2.224l2.131,1.624l2.918,2.225l-1.119,3.611l-0.806,2.602
			c-0.615,1.984,0.194,2.609,1.799,1.387l2.131-1.623L444,18.527l2.918,2.224l2.129,1.623c1.604,1.224,2.415,0.599,1.8-1.388
			l-0.806-2.602l-1.119-3.611l2.918-2.224l2.131-1.624c1.604-1.224,1.298-2.224-0.681-2.224h-2.65h-3.597l-1.119-3.612l-0.806-2.6
			c-0.616-1.987-1.621-1.987-2.237,0l-0.806,2.6l-1.119,3.612L437.359,8.703L437.359,8.703z"/>
		
			<linearGradient id="SVGID_14_" gradientUnits="userSpaceOnUse" x1="443.959" y1="22.1543" x2="443.959" y2="0.1538" gradientTransform="matrix(1 0 0 -1 0.04 23.1543)">
			<stop  offset="0" style="stop-color:#FFFFFF;stop-opacity:0"/>
			<stop  offset="0.0849" style="stop-color:#F6F6F6;stop-opacity:0.0212"/>
			<stop  offset="0.2235" style="stop-color:#DEDEDE;stop-opacity:0.0559"/>
			<stop  offset="0.3985" style="stop-color:#B6B6B6;stop-opacity:0.0996"/>
			<stop  offset="0.6031" style="stop-color:#7F7F7F;stop-opacity:0.1508"/>
			<stop  offset="0.8298" style="stop-color:#393939;stop-opacity:0.2075"/>
			<stop  offset="1" style="stop-color:#000000;stop-opacity:0.25"/>
		</linearGradient>
		<path fill="url(#SVGID_14_)" d="M437.359,8.703h-2.65c-1.979,0-2.285,1-0.681,2.224l2.131,1.624l2.918,2.225l-1.119,3.611
			l-0.806,2.602c-0.615,1.984,0.194,2.609,1.8,1.387l2.13-1.623L444,18.527l2.918,2.224l2.13,1.623
			c1.604,1.224,2.414,0.599,1.799-1.388l-0.806-2.602l-1.118-3.611l2.917-2.224l2.131-1.624c1.604-1.224,1.298-2.224-0.68-2.224
			h-2.651h-3.597l-1.119-3.612l-0.806-2.6c-0.615-1.987-1.621-1.987-2.237,0l-0.805,2.6l-1.12,3.612L437.359,8.703L437.359,8.703z"
			/>
		<g>
			<g>
				<path fill="#0A50A1" d="M444,2.21c0.063,0.131,0.138,0.313,0.215,0.561l0.806,2.599l1.119,3.612
					c0.122,0.396,0.488,0.667,0.903,0.667h3.597h2.651c0.276,0,0.479,0.024,0.622,0.053c-0.104,0.12-0.265,0.281-0.516,0.472
					l-2.132,1.624l-2.917,2.224c-0.315,0.242-0.447,0.653-0.33,1.033l1.117,3.61l0.808,2.603c0.09,0.293,0.133,0.51,0.15,0.666
					c-0.12-0.063-0.276-0.162-0.474-0.312l-2.13-1.623l-2.918-2.224c-0.169-0.129-0.371-0.194-0.573-0.194s-0.404,0.063-0.573,0.194
					l-2.918,2.224l-2.131,1.623c-0.196,0.149-0.354,0.249-0.474,0.313c0.019-0.156,0.061-0.375,0.151-0.668l0.806-2.601l1.119-3.61
					c0.117-0.379-0.015-0.793-0.33-1.033l-2.918-2.225l-2.131-1.624c-0.251-0.191-0.414-0.352-0.516-0.472
					c0.142-0.029,0.345-0.053,0.622-0.053h2.65h3.597c0.415,0,0.781-0.27,0.903-0.666l1.12-3.613l0.805-2.599
					C443.861,2.523,443.936,2.341,444,2.21 M444,1c-0.405,0-0.811,0.497-1.119,1.491l-0.805,2.6l-1.12,3.612h-3.597h-2.65
					c-1.979,0-2.285,1-0.681,2.224l2.131,1.624l2.918,2.225l-1.119,3.611l-0.806,2.602c-0.401,1.297-0.195,2.013,0.442,2.013
					c0.339,0,0.801-0.202,1.356-0.626l2.13-1.623L444,18.527l2.918,2.224l2.13,1.623c0.558,0.424,1.019,0.626,1.356,0.626
					c0.639,0,0.844-0.716,0.441-2.014l-0.806-2.602l-1.118-3.611l2.917-2.224l2.131-1.624c1.604-1.224,1.298-2.224-0.68-2.224
					h-2.651h-3.597l-1.119-3.612l-0.806-2.6C444.811,1.497,444.405,1,444,1L444,1z"/>
			</g>
		</g>
	</g>
	<g id="Grisé_5_">
		
			<linearGradient id="SVGID_15_" gradientUnits="userSpaceOnUse" x1="468.1514" y1="22.1533" x2="468.1514" y2="0.1528" gradientTransform="matrix(1 0 0 -1 0.04 23.1543)">
			<stop  offset="0" style="stop-color:#E9E9EA"/>
			<stop  offset="1" style="stop-color:#A7A8AA"/>
		</linearGradient>
		<path fill="url(#SVGID_15_)" d="M461.552,8.703H458.9c-1.979,0-2.284,1-0.681,2.224l2.131,1.624l2.917,2.225l-1.118,3.611
			l-0.806,2.602c-0.614,1.984,0.194,2.609,1.799,1.387l2.131-1.623l2.919-2.225l2.917,2.225l2.13,1.623
			c1.604,1.225,2.415,0.6,1.8-1.387l-0.806-2.602l-1.119-3.611l2.918-2.225l2.131-1.624c1.604-1.224,1.299-2.224-0.682-2.224h-2.649
			h-3.597l-1.12-3.612l-0.805-2.6c-0.616-1.987-1.622-1.987-2.237,0l-0.807,2.6l-1.118,3.612H461.552z"/>
	</g>
</g>
</svg>
